<svg width="142" height="34" viewBox="0 0 142 34" fill="none" xmlns="http://www.w3.org/2000/svg">
<path d="M64.1697 24.6636V9.42631H66.8554V12.4833C67.6358 10.7707 69.3521 9.1814 72.5056 9.1814C72.8799 9.1814 73.2243 9.21311 73.6286 9.27478V11.8913C73.2543 11.8595 72.8164 11.7979 72.2867 11.7979C68.6652 11.7979 66.8536 13.6356 66.8536 17.0009V24.6653H64.168L64.1697 24.6636Z" fill="#1C1D1D"/>
<path d="M76.0566 17.0289C76.0566 12.4302 79.0672 9.17944 83.3384 9.17944C87.6096 9.17944 90.6202 12.4302 90.6202 17.0289C90.6202 21.6275 87.5778 24.9083 83.3384 24.9083C79.0989 24.9083 76.0566 21.7509 76.0566 17.0289ZM87.8851 17.0289C87.8851 13.5649 86.1035 11.2656 83.3384 11.2656C80.5733 11.2656 78.7917 13.5649 78.7917 17.0289C78.7917 20.4929 80.5115 22.8539 83.3384 22.8539C86.1653 22.8539 87.8851 20.4929 87.8851 17.0289Z" fill="#1C1D1D"/>
<path d="M93.8567 18.8895V9.44024H96.5353V18.3292C96.5353 21.2206 97.5012 22.8046 100.054 22.8046C102.608 22.8046 103.948 20.877 103.948 17.6139V9.43848H106.596V24.6616H103.98V22.3394C103.263 23.9551 101.425 24.8889 99.3693 24.8889C95.7249 24.8889 93.855 22.7129 93.855 18.8895H93.8567Z" fill="#1C1D1D"/>
<path d="M111.452 24.6636V9.42631H114.132V11.6992C114.911 10.3936 116.719 9.1814 118.868 9.1814C122.388 9.1814 124.475 11.4208 124.475 15.2759V24.6653H121.797V15.6178C121.797 12.7881 120.863 11.2957 118.401 11.2957C115.691 11.2957 114.134 13.3167 114.134 15.7111V24.6653H111.453L111.452 24.6636Z" fill="#1C1D1D"/>
<path d="M127.712 17.0414C127.712 12.5643 130.415 9.16197 134.595 9.16197C137.082 9.16197 138.712 10.5116 139.357 11.6445V2.96875H142V24.6653H139.357V22.3765C138.559 23.7561 136.775 24.8908 134.563 24.8908C130.691 24.8908 127.712 22.0699 127.712 17.0414ZM139.54 17.0097C139.54 13.484 137.697 11.2463 134.994 11.2463C132.29 11.2463 130.477 13.5774 130.477 17.0414C130.477 20.5053 132.32 22.8364 134.994 22.8364C137.667 22.8364 139.54 20.567 139.54 17.0114V17.0097Z" fill="#1C1D1D"/>
<path d="M59.316 17.0289V9.42612H56.6745V10.818C55.4438 9.77674 53.8493 9.17944 52.0342 9.17944C47.763 9.17944 44.7524 12.4302 44.7524 17.0289C44.7524 21.6275 47.763 24.9083 52.0342 24.9083C53.8493 24.9083 55.442 24.3286 56.6745 23.2961V24.6317C56.6745 27.9124 55.0147 29.3537 52.2196 29.3537C49.8235 29.3537 48.3474 27.9741 48.3474 25.858H45.7359C45.7359 29.2303 48.2856 31.4081 52.1878 31.4081C56.9199 31.4081 59.316 28.8938 59.316 23.7119V17.0289ZM52.0342 22.8539C49.2073 22.8539 47.4875 20.4929 47.4875 17.0289C47.4875 13.5649 49.2691 11.2656 52.0342 11.2656C54.7993 11.2656 56.5809 13.5649 56.5809 17.0289C56.5809 20.4929 54.8611 22.8539 52.0342 22.8539Z" fill="#1C1D1D"/>
<g clip-path="url(#clip0_679_7499)">
<path d="M25.4073 23.8096C24.9714 23.2626 24.5479 22.7491 24.2162 22.1209C23.805 21.3428 23.7239 20.4393 23.6886 19.5747C23.6304 18.0942 23.5809 16.6173 23.041 15.2197C22.6863 14.3004 22.1164 13.4904 21.3929 12.8499C21.3876 12.8446 21.3823 12.8393 21.377 12.834C21.37 12.827 21.3611 12.8217 21.3541 12.8164C20.1242 11.7453 18.4619 11.1577 16.6621 11.3553C13.8335 11.6659 11.6119 13.8839 11.2943 16.7108C11.0931 18.5089 11.6754 20.1693 12.7412 21.401C12.7501 21.4116 12.7571 21.4239 12.7677 21.4327C12.7712 21.438 12.7765 21.4416 12.7801 21.4451C13.4153 22.165 14.2182 22.735 15.1269 23.0914C16.0321 23.4849 16.8774 23.6261 17.8479 23.6896C18.7619 23.7496 19.6848 23.7479 20.5918 23.8996C21.557 24.0619 22.3652 24.4184 23.0622 25.1154C23.8845 26.0947 23.7909 27.7711 22.831 28.6181C22.2487 29.1333 21.4388 29.2568 20.6871 29.2992C20.5406 29.308 20.3941 29.3115 20.2495 29.3115C20.1489 29.3115 8.35276 29.3115 8.16395 29.3115C6.6676 29.3115 5.45535 28.0993 5.45535 26.6029V8.22499C5.45535 6.72864 6.6676 5.51638 8.16395 5.51638H26.5419C28.0382 5.51638 29.2505 6.72864 29.2505 8.22499C29.2505 8.57967 29.2505 14.6533 29.2487 17.4131C29.2487 17.976 29.704 18.433 30.2669 18.433H32.9208C33.4837 18.433 33.9389 17.9777 33.9389 17.4148V6.35102C33.9389 3.30009 31.465 0.826172 28.4141 0.826172H6.28999C3.23906 0.826172 0.765137 3.30009 0.765137 6.35102V28.4734C0.765137 31.5243 3.23906 33.9982 6.28999 33.9982H22.3687C23.9727 33.9982 25.7072 33.6065 26.7395 32.2795C27.4789 31.3302 27.7224 30.0915 27.6853 28.911C27.6271 27.0882 26.6548 25.3907 25.5537 23.9914C25.5043 23.9296 25.4567 23.8678 25.4073 23.8061V23.8096Z" fill="#1C1D1D"/>
</g>
<defs>
<clipPath id="clip0_679_7499">
<rect width="33.1738" height="33.1738" fill="white" transform="translate(0.765137 0.826172)"/>
</clipPath>
</defs>
</svg>
